<?xml version="1.0" encoding="UTF-8"?>
<svg width="92px" height="70px" viewBox="0 0 92 70" version="1.1" xmlns="http://www.w3.org/2000/svg" xmlns:xlink="http://www.w3.org/1999/xlink">
    <!-- Generator: Sketch 47.1 (45422) - http://www.bohemiancoding.com/sketch -->
    <title>Artboard</title>
    <desc>Created with Sketch.</desc>
    <defs>
        <rect id="path-1" x="0" y="25" width="92" height="20" rx="10"></rect>
    </defs>
    <g id="Page-1" stroke="none" stroke-width="1" fill="none" fill-rule="evenodd">
        <g id="Artboard">
            <g id="Group">
                <path d="M45.2512639,0.0132349118 C34.7924424,0.375734915 26.1037413,8.43602909 25.0999535,18.7246321 C24.8948786,20.7823527 25.0136062,22.7761027 25.3805823,24.6845586 L25.3805823,24.6845586 C25.3805823,24.6845586 25.4129626,24.9084557 25.5208968,25.3349263 C25.8446993,26.7636028 26.3304031,28.1496322 26.9348345,29.4503675 C29.0395509,34.3761028 33.9073821,42.617647 44.8303206,51.5841912 C45.4995125,52.1386029 46.4817134,52.1386029 47.1616987,51.5841912 C58.0846372,42.6283088 62.9524685,34.3867646 65.0679783,29.4397057 C65.6832031,28.1389704 66.1581134,26.7636028 66.481916,25.3242645 C66.5790567,24.9084557 66.6222304,24.6738969 66.6222304,24.6738969 L66.6222304,24.6738969 C66.870479,23.3944851 67,22.083088 67,20.7397057 C67,9.03308792 57.1887835,-0.402573915 45.2512639,0.0132349118 Z" id="Shape" fill="#409EFF" fill-rule="nonzero"></path>
                <path d="M52.1333333,8.8125 C51.9555207,8.325 51.4222222,8 50.8888889,8 L41.1111111,8 C40.4888889,8 40.0444444,8.325 39.8666667,8.8125 L38,13.6875 L38,20.1875 C38,20.675 38.3555556,21 38.8888889,21 L39.7777778,21 C40.3111111,21 40.6666667,20.675 40.6666667,20.1875 L40.6666667,19.375 L51.3333333,19.375 L51.3333333,20.1875 C51.3333333,20.675 51.6888889,21 52.2222222,21 L53.1111111,21 C53.6444444,21 54,20.675 54,20.1875 L54,13.6875 L52.1333333,8.8125 Z M41.5,18 C40.7,18 40,17.3 40,16.5 C40,15.7 40.7,15 41.5,15 C42.3,15 43,15.7 43,16.5 C43,17.3 42.3,18 41.5,18 Z M50.5,18 C49.7,18 49,17.3 49,16.5 C49,15.7 49.7,15 50.5,15 C51.3,15 52,15.7 52,16.5 C52,17.3 51.3,18 50.5,18 Z M40,13 L41.2857143,9 L50.7142857,9 L52,13 L40,13 Z" id="Shape" fill="#FFFFFF" fill-rule="nonzero"></path>
                <g id="Rectangle-2">
                    <use fill="#1A4073" fill-rule="evenodd" xlink:href="#path-1"></use>
                    <rect stroke="#1A4073" stroke-width="1" x="0.5" y="25.5" width="91" height="19" rx="9.5"></rect>
                </g>
            </g>
        </g>
    </g>
</svg>